<?xml version="1.0" standalone="no"?><!DOCTYPE svg PUBLIC "-//W3C//DTD SVG 1.1//EN" "http://www.w3.org/Graphics/SVG/1.1/DTD/svg11.dtd"><svg t="1558515231503" class="icon" style="" viewBox="0 0 1295 1024" version="1.1" xmlns="http://www.w3.org/2000/svg" p-id="12368" xmlns:xlink="http://www.w3.org/1999/xlink" width="252.9296875" height="200"><defs><style type="text/css"></style></defs><path d="M654.516706 692.585412L835.102118 512l0.12047 0.120471 0.120471-0.120471 383.307294 383.337412-106.465882 106.465882-276.961883-276.961882-74.24 74.24 96.256 96.256-106.465882 106.465882-96.256-96.256-96.256 96.256L451.764706 895.337412l96.256-96.256-74.209882-74.24-276.961883 276.961882L90.352941 895.337412 473.690353 512l0.120471 0.120471 0.12047-0.120471 180.585412 180.585412z m-22.528-473.750588L106.496 745.351529 0 638.885647 644.216471 4.457412 648.613647 0l638.885647 638.885647-106.496 106.496L631.988706 218.804706z" fill="#ffffff" p-id="12369"></path></svg>