<?xml version="1.0" standalone="no"?><!DOCTYPE svg PUBLIC "-//W3C//DTD SVG 1.1//EN" "http://www.w3.org/Graphics/SVG/1.1/DTD/svg11.dtd"><svg t="1558515251855" class="icon" style="" viewBox="0 0 1024 1024" version="1.1" xmlns="http://www.w3.org/2000/svg" p-id="12541" xmlns:xlink="http://www.w3.org/1999/xlink" width="200" height="200"><defs><style type="text/css"></style></defs><path d="M512.107544 964.474483l-394.561342-180.897502c-12.833483-4.232319-32.083708-13.516115-63.689573-31.537602a35.496868 35.496868 0 1 1 35.155552-61.778203c12.219114 6.962847 26.963967 14.335274 38.227397 19.591541l384.867966 176.596919 368.075218-168.74665 32.220234-16.110117 24.643018-12.287378a35.496868 35.496868 0 1 1 31.605865 63.553047l-24.574755 12.287377c-11.673009 5.938899-23.41428 11.741272-35.292078 17.338855l-396.677502 181.989713z m-0.682632-422.344468c-20.752015 0-38.978292-7.2359-55.566251-15.017906L82.527176 360.140302a79.185321 79.185321 0 0 1-42.664505-68.604524 86.011642 86.011642 0 0 1 38.022607-76.318266l376.539855-197.963304c47.784246-23.755596 77.820057-22.526859 117.549245 0.887422l372.444062 195.505828c25.940019 14.198747 41.026188 43.4154 39.933977 76.591319-1.023948 31.605865-16.929276 58.365043-41.50403 69.696736L568.424691 527.316899c-20.547226 8.94248-37.88608 14.813116-56.999779 14.813116z m2.935318-470.47003c3.891003 0 9.966428 0.887422 23.209491 8.601164l372.921905 195.915407c3.549687 3.276634 4.095792 16.656223 2.935318 19.250225L539.822407 462.398588c-27.23702 11.877798-27.305283 12.833483-54.47404 0.204789L113.655199 296.518992c-1.365264-0.682632-2.730528-3.549687-2.867055-7.782005a22.663385 22.663385 0 0 1 2.730529-12.014325L486.645368 80.602465c12.287377-6.143689 21.093331-8.874217 27.646599-8.874217z m-2.252686 687.273978L118.297097 578.377778c-16.792749-4.778425-37.749554-16.724486-64.440468-31.947181a35.496868 35.496868 0 1 1 35.155552-61.573414c11.741272 6.621531 25.940019 13.720905 36.862132 18.977172l386.233231 177.074762 368.075218-168.678387 32.220234-16.110117 24.643018-12.219115a35.496868 35.496868 0 1 1 31.605865 63.484784l-24.574755 12.287377c-11.673009 5.870636-23.41428 11.673009-35.292078 17.270592v0.068263l-396.677502 181.921449z" p-id="12542" fill="#4A90E2"></path></svg>