<?xml version="1.0" standalone="no"?><!DOCTYPE svg PUBLIC "-//W3C//DTD SVG 1.1//EN" "http://www.w3.org/Graphics/SVG/1.1/DTD/svg11.dtd"><svg t="1558514902109" class="icon" style="" viewBox="0 0 1024 1024" version="1.1" xmlns="http://www.w3.org/2000/svg" p-id="6486" xmlns:xlink="http://www.w3.org/1999/xlink" width="200" height="200"><defs><style type="text/css"></style></defs><path d="M362.6 81.8H151.8c-48.5 0-87.8 39.3-87.8 87.8v210.8c0 48.5 39.3 87.8 87.8 87.8h210.8c48.5 0 87.8-39.3 87.8-87.8V169.6c0-48.5-39.3-87.8-87.8-87.8z m-49.6 281H201.4c-17.7 0-32-14.3-32-32V219.2c0-17.7 14.3-32 32-32H313c17.7 0 32 14.3 32 32v111.6c0 17.7-14.3 32-32 32zM942.2 232.1L791.9 81.8c-23.7-23.7-62.1-23.7-85.7 0L555.7 232.1c-23.7 23.7-23.7 62.1 0 85.7l150.4 150.4c23.7 23.7 62.1 23.7 85.7 0l150.4-150.4c23.7-23.6 23.7-62 0-85.7zM362.6 573.6H151.8c-48.5 0-87.8 39.3-87.8 87.8v210.8c0 48.5 39.3 87.8 87.8 87.8h210.8c48.5 0 87.8-39.3 87.8-87.8V661.4c0-48.5-39.3-87.8-87.8-87.8zM854.4 573.6H643.6c-48.5 0-87.8 39.3-87.8 87.8v210.8c0 48.5 39.3 87.8 87.8 87.8h210.8c48.5 0 87.8-39.3 87.8-87.8V661.4c0-48.5-39.3-87.8-87.8-87.8z" p-id="6487" fill="#4A90E2"></path></svg>